<svg width="20" height="20" viewBox="0 0 20 20" fill="none" xmlns="http://www.w3.org/2000/svg">
  <path d="M6.46967 12.3467C6.32377 12.3467 6.17787 12.2929 6.06268 12.1775C5.95557 12.0689 5.89551 11.9224 5.89551 11.7698C5.89551 11.6171 5.95557 11.4707 6.06268 11.3621L8.51999 8.90055C8.57939 8.83947 8.65171 8.79251 8.73164 8.76314C8.81156 8.73378 8.89704 8.72275 8.98178 8.73087C9.06652 8.73899 9.14837 8.76605 9.22128 8.81006C9.2942 8.85407 9.35632 8.91391 9.40308 8.98517L10.2401 10.2467L12.9662 7.51594C13.1889 7.29286 13.5575 7.29286 13.7802 7.51594C14.0029 7.73902 14.0029 8.10825 13.7802 8.33132L10.5549 11.5621C10.4955 11.6232 10.4232 11.6701 10.3433 11.6995C10.2634 11.7289 10.1779 11.7399 10.0932 11.7318C10.0084 11.7237 9.92657 11.6966 9.85366 11.6526C9.78074 11.6086 9.71861 11.5487 9.67185 11.4775L8.83483 10.2159L6.87667 12.1775C6.76148 12.2929 6.61558 12.3467 6.46967 12.3467Z" fill="black"/>
  <path d="M13.3808 10.038C13.0659 10.038 12.8049 9.77647 12.8049 9.46109V8.49955H11.845C11.5301 8.49955 11.269 8.23801 11.269 7.92263C11.269 7.60724 11.5301 7.3457 11.845 7.3457H13.3808C13.6956 7.3457 13.9567 7.60724 13.9567 7.92263V9.46109C13.9567 9.77647 13.6956 10.038 13.3808 10.038Z" fill="black"/>
  <path d="M12.2292 18.1156H7.6217C3.45196 18.1156 1.67041 16.331 1.67041 12.1541V7.53868C1.67041 3.36176 3.45196 1.57715 7.6217 1.57715H12.2292C16.3989 1.57715 18.1804 3.36176 18.1804 7.53868V12.1541C18.1804 16.331 16.3989 18.1156 12.2292 18.1156ZM7.6217 2.73099C4.08164 2.73099 2.82227 3.99253 2.82227 7.53868V12.1541C2.82227 15.7002 4.08164 16.9618 7.6217 16.9618H12.2292C15.7692 16.9618 17.0286 15.7002 17.0286 12.1541V7.53868C17.0286 3.99253 15.7692 2.73099 12.2292 2.73099H7.6217Z" fill="black"/>
</svg>