<svg width="20" height="20" viewBox="0 0 20 20" fill="none" xmlns="http://www.w3.org/2000/svg">
  <path d="M6.63032 12.3467C6.48442 12.3467 6.33851 12.2929 6.22333 12.1775C6.11622 12.0689 6.05615 11.9224 6.05615 11.7698C6.05615 11.6171 6.11622 11.4707 6.22333 11.3621L8.68063 8.90055C8.74003 8.83947 8.81236 8.79251 8.89228 8.76314C8.9722 8.73378 9.05768 8.72275 9.14243 8.73087C9.22717 8.73899 9.30901 8.76605 9.38193 8.81006C9.45484 8.85407 9.51697 8.91391 9.56373 8.98517L10.4007 10.2467L13.1268 7.51594C13.3495 7.29286 13.7181 7.29286 13.9408 7.51594C14.1635 7.73902 14.1635 8.10825 13.9408 8.33132L10.7156 11.5621C10.6562 11.6232 10.5839 11.6701 10.5039 11.6995C10.424 11.7289 10.3385 11.7399 10.2538 11.7318C10.1691 11.7237 10.0872 11.6966 10.0143 11.6526C9.94139 11.6086 9.87926 11.5487 9.8325 11.4775L8.99548 10.2159L7.03731 12.1775C6.92212 12.2929 6.77622 12.3467 6.63032 12.3467Z" fill="white"/>
  <path d="M13.5414 10.038C13.2266 10.038 12.9655 9.77647 12.9655 9.46109V8.49955H12.0056C11.6908 8.49955 11.4297 8.23801 11.4297 7.92263C11.4297 7.60724 11.6908 7.3457 12.0056 7.3457H13.5414C13.8563 7.3457 14.1174 7.60724 14.1174 7.92263V9.46109C14.1174 9.77647 13.8563 10.038 13.5414 10.038Z" fill="white"/>
  <path d="M12.3898 18.1156H7.78235C3.6126 18.1156 1.83105 16.331 1.83105 12.1541V7.53868C1.83105 3.36176 3.6126 1.57715 7.78235 1.57715H12.3898C16.5595 1.57715 18.3411 3.36176 18.3411 7.53868V12.1541C18.3411 16.331 16.5595 18.1156 12.3898 18.1156ZM7.78235 2.73099C4.24229 2.73099 2.98292 3.99253 2.98292 7.53868V12.1541C2.98292 15.7002 4.24229 16.9618 7.78235 16.9618H12.3898C15.9299 16.9618 17.1892 15.7002 17.1892 12.1541V7.53868C17.1892 3.99253 15.9299 2.73099 12.3898 2.73099H7.78235Z" fill="white"/>
</svg>