<svg xmlns="http://www.w3.org/2000/svg" width="128" height="128" viewBox="0 0 128 128" fill="none">
  <rect width="127.366" height="127.366" transform="translate(0.455078 0.4552)" fill="white"/>
  <path d="M27.307 54.4725C27.307 51.2595 27.307 49.6531 27.7386 48.1863C28.1207 46.8874 28.7479 45.6736 29.5862 44.6104C30.5328 43.4098 31.8431 42.4803 34.4637 40.6214L54.6299 26.3163C58.1668 23.8073 59.9353 22.5529 61.8624 22.0674C63.5644 21.6386 65.3462 21.6386 67.0482 22.0674C68.9753 22.5529 70.7437 23.8073 74.2807 26.3163L94.4469 40.6214C97.0675 42.4803 98.3777 43.4098 99.3244 44.6104C100.163 45.6736 100.79 46.8874 101.172 48.1863C101.604 49.6531 101.604 51.2595 101.604 54.4725V87.2749C101.604 93.2191 101.604 96.1913 100.447 98.4617C99.4292 100.459 97.8055 102.083 95.8083 103.1C93.5379 104.257 90.5658 104.257 84.6215 104.257H44.2891C38.3448 104.257 35.3727 104.257 33.1022 103.1C31.1051 102.083 29.4814 100.459 28.4638 98.4617C27.307 96.1913 27.307 93.2191 27.307 87.2749V54.4725Z" stroke="black" stroke-width="7.96035" stroke-linecap="round" stroke-linejoin="round"/>
  <path d="M64.4553 85.3655V85.3124" stroke="black" stroke-width="13.2672" stroke-linecap="round" stroke-linejoin="round"/>
</svg>