<svg width="25" height="24" viewBox="0 0 25 24" fill="none" xmlns="http://www.w3.org/2000/svg">
  <path d="M12.5699 2.91016C9.25989 2.91016 6.56989 5.60016 6.56989 8.91016V11.8002C6.56989 12.4102 6.30989 13.3402 5.99989 13.8602L4.84989 15.7702C4.13989 16.9502 4.62989 18.2602 5.92989 18.7002C10.2399 20.1402 14.8899 20.1402 19.1999 18.7002C20.4099 18.3002 20.9399 16.8702 20.2799 15.7702L19.1299 13.8602C18.8299 13.3402 18.5699 12.4102 18.5699 11.8002V8.91016C18.5699 5.61016 15.8699 2.91016 12.5699 2.91016Z" stroke="#CCCCCC" stroke-width="1.5" stroke-miterlimit="10" stroke-linecap="round"/>
  <path d="M14.4197 3.19994C13.2104 2.85553 11.929 2.85553 10.7197 3.19994C11.0097 2.45994 11.7297 1.93994 12.5697 1.93994C13.4097 1.93994 14.1297 2.45994 14.4197 3.19994V3.19994Z" stroke="#CCCCCC" stroke-width="1.5" stroke-miterlimit="10" stroke-linecap="round" stroke-linejoin="round"/>
  <path d="M15.5693 19.0601C15.5693 20.7101 14.2193 22.0601 12.5693 22.0601C11.7493 22.0601 10.9893 21.7201 10.4493 21.1801C9.88749 20.6174 9.57113 19.8552 9.56934 19.0601" stroke="#CCCCCC" stroke-width="1.5" stroke-miterlimit="10"/>
  <circle cx="18.0498" cy="4.5" r="3.5" fill="#FF5789" stroke="white" stroke-width="2"/>
</svg>