<svg width="25" height="25" viewBox="0 0 25 25" fill="none" xmlns="http://www.w3.org/2000/svg">
  <path d="M18.5215 7.94032H18.3915C16.5015 7.88032 15.0915 6.42032 15.0915 4.62032C15.0915 2.78032 16.5915 1.29032 18.4215 1.29032C20.2515 1.29032 21.7515 2.79032 21.7515 4.62032C21.7527 5.48498 21.4173 6.31616 20.8162 6.93775C20.2151 7.55934 19.3957 7.92251 18.5315 7.95032C18.5315 7.94032 18.5315 7.94032 18.5215 7.94032ZM18.4215 2.78032C17.4115 2.78032 16.5915 3.60032 16.5915 4.61032C16.5915 5.60032 17.3615 6.40032 18.3515 6.44032C18.3615 6.43032 18.4415 6.43032 18.5315 6.44032C19.005 6.4091 19.4479 6.19537 19.767 5.84414C20.086 5.4929 20.2564 5.03156 20.2421 4.55725C20.2279 4.08294 20.0301 3.63267 19.6905 3.30123C19.3509 2.96979 18.896 2.78305 18.4215 2.78032ZM18.5305 15.3083C18.1405 15.3083 17.7505 15.2783 17.3605 15.2083C17.2632 15.1914 17.1703 15.1555 17.0869 15.1026C17.0036 15.0496 16.9315 14.9808 16.8748 14.9C16.8182 14.8191 16.778 14.7279 16.7567 14.6315C16.7353 14.5352 16.7332 14.4355 16.7505 14.3383C16.7674 14.2411 16.8033 14.1481 16.8562 14.0648C16.9092 13.9814 16.978 13.9094 17.0588 13.8527C17.1397 13.796 17.2309 13.7559 17.3273 13.7345C17.4236 13.7132 17.5233 13.7111 17.6205 13.7283C18.8505 13.9383 20.1505 13.7083 21.0205 13.1283C21.4905 12.8183 21.7405 12.4283 21.7405 12.0383C21.7405 11.6483 21.4805 11.2683 21.0205 10.9583C20.1505 10.3783 18.8305 10.1483 17.5905 10.3683C17.1805 10.4483 16.7905 10.1683 16.7205 9.75832C16.6505 9.34832 16.9205 8.95832 17.3305 8.88832C18.9605 8.59832 20.6505 8.90832 21.8505 9.70832C22.7305 10.2983 23.2405 11.1383 23.2405 12.0383C23.2405 12.9283 22.7405 13.7783 21.8505 14.3783C20.9405 14.9783 19.7605 15.3083 18.5305 15.3083ZM6.49148 7.93832H6.47148C5.60875 7.91131 4.79034 7.54977 4.1894 6.93016C3.58846 6.31055 3.2521 5.48148 3.25148 4.61832C3.25148 2.77832 4.75148 1.27832 6.58148 1.27832C8.41148 1.27832 9.91148 2.77832 9.91148 4.60832C9.91148 6.41832 8.50148 7.87832 6.70148 7.93832L6.49148 7.18832L6.56148 7.93832H6.49148ZM6.59148 6.43832C6.65148 6.43832 6.70148 6.43832 6.76148 6.44832C7.65148 6.40832 8.43148 5.60832 8.43148 4.61832C8.43095 4.26076 8.32568 3.91118 8.12867 3.61279C7.93167 3.31439 7.65156 3.08024 7.32296 2.93928C6.99435 2.79831 6.63165 2.75669 6.27966 2.81958C5.92767 2.88246 5.60181 3.04708 5.34234 3.2931C5.08287 3.53913 4.90116 3.85578 4.81966 4.20393C4.73816 4.55208 4.76043 4.91648 4.88374 5.25211C5.00704 5.58774 5.22596 5.8799 5.51347 6.09249C5.80097 6.30508 6.14445 6.42878 6.50148 6.44832C6.51148 6.43832 6.55148 6.43832 6.59148 6.43832ZM6.48148 15.3083C5.25148 15.3083 4.07148 14.9783 3.16148 14.3783C2.28148 13.7883 1.77148 12.9383 1.77148 12.0383C1.77148 11.1483 2.28148 10.2983 3.16148 9.70832C4.36148 8.90832 6.05148 8.59832 7.68148 8.88832C8.09148 8.95832 8.36148 9.34832 8.29148 9.75832C8.22148 10.1683 7.83148 10.4483 7.42148 10.3683C6.18148 10.1483 4.87148 10.3783 3.99148 10.9583C3.52148 11.2683 3.27148 11.6483 3.27148 12.0383C3.27148 12.4283 3.53148 12.8183 3.99148 13.1283C4.86148 13.7083 6.16148 13.9383 7.39148 13.7283C7.80148 13.6583 8.19148 13.9383 8.26148 14.3383C8.33148 14.7483 8.06148 15.1383 7.65148 15.2083C7.26148 15.2783 6.87148 15.3083 6.48148 15.3083ZM12.5215 15.4083H12.3915C10.5015 15.3483 9.09148 13.8883 9.09148 12.0883C9.09148 10.2483 10.5915 8.75832 12.4215 8.75832C14.2515 8.75832 15.7515 10.2583 15.7515 12.0883C15.7527 12.953 15.4173 13.7842 14.8162 14.4058C14.2151 15.0273 13.3957 15.3905 12.5315 15.4183C12.5315 15.4083 12.5315 15.4083 12.5215 15.4083ZM12.4215 10.2483C11.4115 10.2483 10.5915 11.0683 10.5915 12.0783C10.5915 13.0683 11.3615 13.8683 12.3515 13.9083C12.3615 13.8983 12.4415 13.8983 12.5315 13.9083C13.5015 13.8583 14.2515 13.0583 14.2615 12.0783C14.2615 11.0783 13.4415 10.2483 12.4215 10.2483ZM12.5225 22.7873C11.3225 22.7873 10.1225 22.4773 9.19248 21.8473C8.31248 21.2573 7.80248 20.4173 7.80248 19.5173C7.80248 18.6273 8.30248 17.7673 9.19248 17.1773C11.0625 15.9373 13.9925 15.9373 15.8525 17.1773C16.7325 17.7673 17.2425 18.6073 17.2425 19.5073C17.2425 20.3973 16.7425 21.2573 15.8525 21.8473C14.9225 22.4673 13.7225 22.7873 12.5225 22.7873ZM10.0225 18.4373C9.55248 18.7473 9.30248 19.1373 9.30248 19.5273C9.30248 19.9173 9.56248 20.2973 10.0225 20.6073C11.3725 21.5173 13.6625 21.5173 15.0125 20.6073C15.4825 20.2973 15.7325 19.9073 15.7325 19.5173C15.7325 19.1273 15.4725 18.7473 15.0125 18.4373C13.6725 17.5273 11.3825 17.5373 10.0225 18.4373Z" fill="#353535"/>
</svg>