<svg width="25" height="25" viewBox="0 0 25 25" fill="none" xmlns="http://www.w3.org/2000/svg">
  <path d="M15.5215 23.7212H9.52148C4.09148 23.7212 1.77148 21.4012 1.77148 15.9712V9.97119C1.77148 4.54119 4.09148 2.22119 9.52148 2.22119H15.5215C20.9515 2.22119 23.2715 4.54119 23.2715 9.97119V15.9712C23.2715 21.4012 20.9515 23.7212 15.5215 23.7212ZM9.52148 3.72119C4.91148 3.72119 3.27148 5.36119 3.27148 9.97119V15.9712C3.27148 20.5812 4.91148 22.2212 9.52148 22.2212H15.5215C20.1315 22.2212 21.7715 20.5812 21.7715 15.9712V9.97119C21.7715 5.36119 20.1315 3.72119 15.5215 3.72119H9.52148Z" fill="#353535"/>
  <path d="M16.1016 20.2232C15.6916 20.2232 15.3516 19.8832 15.3516 19.4732V15.5732C15.3516 15.1632 15.6916 14.8232 16.1016 14.8232C16.5116 14.8232 16.8516 15.1632 16.8516 15.5732V19.4732C16.8516 19.8832 16.5116 20.2232 16.1016 20.2232ZM16.1016 9.17119C15.6916 9.17119 15.3516 8.83119 15.3516 8.42119V6.47119C15.3516 6.06119 15.6916 5.72119 16.1016 5.72119C16.5116 5.72119 16.8516 6.06119 16.8516 6.47119V8.42119C16.8516 8.83119 16.5116 9.17119 16.1016 9.17119Z" fill="#353535"/>
  <path d="M16.1014 14.3712C15.4388 14.3712 14.7912 14.1747 14.2402 13.8066C13.6893 13.4385 13.26 12.9153 13.0064 12.3032C12.7529 11.691 12.6865 11.0175 12.8158 10.3676C12.945 9.7178 13.2641 9.12089 13.7326 8.65238C14.2011 8.18388 14.798 7.86482 15.4479 7.73556C16.0977 7.6063 16.7713 7.67264 17.3834 7.9262C17.9955 8.17975 18.5187 8.60913 18.8868 9.16003C19.2549 9.71094 19.4514 10.3586 19.4514 11.0212C19.4514 12.8712 17.9414 14.3712 16.1014 14.3712ZM16.1014 9.17119C15.0814 9.17119 14.2514 10.0012 14.2514 11.0212C14.2514 12.0412 15.0814 12.8712 16.1014 12.8712C17.1214 12.8712 17.9514 12.0412 17.9514 11.0212C17.9514 10.0012 17.1114 9.17119 16.1014 9.17119ZM8.94141 20.2212C8.53141 20.2212 8.19141 19.8812 8.19141 19.4712V17.5212C8.19141 17.1112 8.53141 16.7712 8.94141 16.7712C9.35141 16.7712 9.69141 17.1112 9.69141 17.5212V19.4712C9.69141 19.8812 9.36141 20.2212 8.94141 20.2212ZM8.94141 11.1212C8.53141 11.1212 8.19141 10.7812 8.19141 10.3712V6.47119C8.19141 6.06119 8.53141 5.72119 8.94141 5.72119C9.35141 5.72119 9.69141 6.06119 9.69141 6.47119V10.3712C9.69141 10.7812 9.36141 11.1212 8.94141 11.1212Z" fill="#353535"/>
  <path d="M8.94131 18.2732C8.50138 18.2732 8.06576 18.1866 7.65932 18.0182C7.25288 17.8499 6.88358 17.6031 6.5725 17.2921C6.26142 16.981 6.01467 16.6117 5.84631 16.2052C5.67796 15.7988 5.59131 15.3632 5.59131 14.9232C5.59131 14.4833 5.67796 14.0477 5.84631 13.6413C6.01467 13.2348 6.26142 12.8655 6.5725 12.5544C6.88358 12.2434 7.25288 11.9966 7.65932 11.8282C8.06576 11.6599 8.50138 11.5732 8.94131 11.5732C9.82978 11.5732 10.6819 11.9262 11.3101 12.5544C11.9384 13.1827 12.2913 14.0348 12.2913 14.9232C12.2913 15.8117 11.9384 16.6638 11.3101 17.2921C10.6819 17.9203 9.82978 18.2732 8.94131 18.2732ZM8.94131 13.0732C7.92131 13.0732 7.09131 13.9032 7.09131 14.9232C7.09131 15.9432 7.92131 16.7732 8.94131 16.7732C9.96131 16.7732 10.7913 15.9432 10.7913 14.9232C10.7913 13.9032 9.97131 13.0732 8.94131 13.0732Z" fill="#353535"/>
</svg>